PathFileType	4	(X/Y/Z)	D:\Research_projects\MuscleProsody\BulkSports2Dtrack\RetrackedSports2D\p1_sample60_cam3\p1_sample60_cam3_Sports2D\p1_sample60_cam3_Sports2D_px_person00.trc
DataRate	CameraRate	NumFrames	NumMarkers	Units	OrigDataRate	OrigDataStartFrame	OrigNumFrames
60	60	7	22	m	60	97	780
Frame#	Time	Hip			RHip			RKnee			RAnkle			RBigToe			RSmallToe			RHeel			LHip			LKnee			LAnkle			LBigToe			LSmallToe			LHeel			Neck			Head			Nose			RShoulder			RElbow			RWrist			LShoulder			LElbow			LWrist		
		X1	Y1	Z1	X2	Y2	Z2	X3	Y3	Z3	X4	Y4	Z4	X5	Y5	Z5	X6	Y6	Z6	X7	Y7	Z7	X8	Y8	Z8	X9	Y9	Z9	X10	Y10	Z10	X11	Y11	Z11	X12	Y12	Z12	X13	Y13	Z13	X14	Y14	Z14	X15	Y15	Z15	X16	Y16	Z16	X17	Y17	Z17	X18	Y18	Z18	X19	Y19	Z19	X20	Y20	Z20	X21	Y21	Z21	X22	Y22	Z22
97	1.6166666666666667	224.43180616656477	557.9008198178233	0.0	201.0528032439354	563.1309816834727	0.0	207.1201578904065	678.4486966687913	0.0	217.59496884152236	775.5127200837193	0.0	189.18316698825012	810.0226003675541	0.0	182.44354823282	801.9008744827261	0.0	228.65387639512792	790.691226678685	0.0	250.63775354724683	567.3071619547726	0.0	250.74048540599762	683.6517690514327	0.0	259.4662311164035	789.3150386488467	0.0	221.50855637602666	824.513935816433	0.0	242.05591126450054	828.3578348738974	0.0	270.9468108779598	803.6117412877547	0.0	234.61784915699005	358.86374864518046	0.0	217.98741682697244	272.7813706024499	0.0	188.67896315695185	320.2527848020832	0.0	196.2570276401516	392.006972622797	0.0	163.93788641440622	461.57609665284116	0.0	128.57480941979875	473.3235344576266	0.0	286.72225529513895	388.90752361220285	0.0	304.7077684928462	483.96720594893657	0.0	283.5654244787747	566.3066205616097	0.0
98	1.6333333333333333	224.54211962531997	557.5792864034155	0.0	201.1431892997847	562.9079988884362	0.0	207.10357178280228	678.2701785766743	0.0	217.57326834454952	775.3976911593703	0.0	189.08821321293954	809.8871511596814	0.0	182.4329528024931	801.8054051546997	0.0	228.64916162158482	790.68497008779	0.0	250.77802189440274	566.9503209348005	0.0	250.88123671862795	683.398346607566	0.0	259.3322252523279	789.2379383830073	0.0	221.01121962085838	824.6204311370178	0.0	241.78566592648508	828.4616397023954	0.0	270.8872774826604	803.5624734169199	0.0	234.51913151252032	358.86806887780017	0.0	217.71685937747714	272.7523471067942	0.0	188.44750116793912	320.35305235252616	0.0	196.3435838386623	391.6500523770869	0.0	163.8007116865772	460.0447573672526	0.0	129.9368288757967	473.15592236606346	0.0	286.4153699536552	388.65513989526755	0.0	305.6470739460763	483.0866249213363	0.0	281.7146411244943	563.1519380389673	0.0
99	1.65	224.6805620885903	557.1804668375582	0.0	201.26021522709596	562.6359589696832	0.0	207.0928282152292	678.056236328656	0.0	217.5442935162523	775.2596558294672	0.0	188.95671501446444	809.7283978768256	0.0	182.38899682403508	801.7006250566387	0.0	228.6437691386433	790.6717048944914	0.0	250.95265726989336	566.5309983460136	0.0	251.03080596398132	683.1006764005625	0.0	259.20715323601917	789.143245624963	0.0	220.5267243320613	824.7187766705479	0.0	241.52320642508388	828.5653219707503	0.0	270.8477848727827	803.5127149716706	0.0	234.40997968931936	358.8628972787211	0.0	217.4210745345969	272.73652680700616	0.0	188.2145025212496	320.46004893318604	0.0	196.37637067060678	391.3098641174514	0.0	163.38389215580315	458.4130478099892	0.0	130.6883332147658	472.0280121390938	0.0	286.0778520693243	388.3216744593975	0.0	306.72555721324403	481.9670317368089	0.0	280.0603659842094	559.0156923051819	0.0
100	1.6666666666666667	224.84693899650935	556.7058267193564	0.0	201.40293162413082	562.3063221356545	0.0	207.09106145155985	677.8091637222376	0.0	217.50870010534842	775.1017506969522	0.0	188.79511033446406	809.5585744309353	0.0	182.31371292180205	801.5910110071188	0.0	228.64073787535997	790.6440226732169	0.0	251.14983574378326	566.0478632342453	0.0	251.17530237183504	682.7674633960773	0.0	259.093141858887	789.0348980078792	0.0	220.07453717669654	824.8031837894968	0.0	241.27650180423805	828.6610916452918	0.0	270.8218911702955	803.4750677295219	0.0	234.30129155540152	358.8530196358237	0.0	217.1144738750089	272.73807582971085	0.0	188.00507883860445	320.56913958563655	0.0	196.36102634955765	391.0002680184281	0.0	162.68639000005223	456.71551038120606	0.0	130.67079694033487	470.0823535482904	0.0	285.7269776059494	387.89946585028855	0.0	307.9434844860369	480.5944102222736	0.0	278.8190570932377	553.8049249380272	0.0
101	1.6833333333333333	225.03927440787422	556.1640422714163	0.0	201.5680853620345	561.9141935443473	0.0	207.09832174421598	677.5283880462806	0.0	217.4679911755686	774.9246599252043	0.0	188.61103475118065	809.3905018431568	0.0	182.21071284516984	801.4813098123714	0.0	228.64555144860967	790.5910203598097	0.0	251.35430802654932	565.5016314198941	0.0	251.30313594980095	682.406724182916	0.0	258.9942375287234	788.9175851562169	0.0	219.67638909520778	824.8701940466569	0.0	241.057089841208	828.7448917863788	0.0	270.8059359621719	803.4542960407989	0.0	234.20025585267814	358.8417904744252	0.0	216.80569140066012	272.7546318516573	0.0	187.8399428663133	320.6782951127394	0.0	196.30645384618703	390.7320125355238	0.0	161.72752546207474	454.983082009997	0.0	129.78352417915335	467.48105075536574	0.0	285.3792360919426	387.3883401764722	0.0	309.3066882505233	478.9591818456397	0.0	278.22009451676007	547.4634666583426	0.0
102	1.7	225.25197582047022	555.5724242703448	0.0	201.75210529760918	561.457494208309	0.0	207.1087994387813	677.2115577427362	0.0	217.42401667045283	774.7284391924389	0.0	188.4095156654191	809.2353624978721	0.0	182.0827370601349	801.3783985915562	0.0	228.66510933463022	790.5020768372902	0.0	251.54759108136489	564.8959363975362	0.0	251.40359626989175	682.0276003148487	0.0	258.91755912039855	788.7951306130449	0.0	219.36077565006383	824.9164568525582	0.0	240.8799205758948	828.8171359768138	0.0	270.80419369748853	803.4445327282003	0.0	234.11240983402723	358.82944999061857	0.0	216.49365294938372	272.77583877251004	0.0	187.72983175695745	320.78529130061503	0.0	196.22492150511098	390.5166300013674	0.0	160.5413415366875	453.249970203462	0.0	127.9847571112908	464.39266559338233	0.0	285.04893251707654	386.79809618202137	0.0	310.8261464789888	477.05186808720686	0.0	278.47268863097906	539.9815231538236	0.0
103	1.7166666666666666	225.4742567409044	554.9553133578336	0.0	201.95098166141764	560.9381189329325	0.0	207.11434349953433	676.8622088806962	0.0	217.37914630437822	774.5188845096878	0.0	188.1941643828208	809.0978361217348	0.0	181.93391798633346	801.2874272622033	0.0	228.70682813252444	790.3745306928232	0.0	251.71113391802854	564.2388453524234	0.0	251.46756354196634	681.6436828579089	0.0	258.8709847880806	788.6698892721994	0.0	219.15720188176618	824.9359228273441	0.0	240.7601406110287	828.8767292746911	0.0	270.8244014789852	803.4328140605018	0.0	234.0409770989928	358.81566374850763	0.0	216.1679973200131	272.7906292259092	0.0	187.6721803945194	320.88910422630636	0.0	196.13202062242593	390.3643709196245	0.0	159.17380719758484	451.5595582896259	0.0	125.29302129234975	460.98676035855647	0.0	284.74645881538584	386.1450668820876	0.0	312.5159724476961	474.8535236812613	0.0	279.73999173870556	531.4028135321452	0.0
